<?xml version="1.0" encoding="utf-8"?>
<!-- Generator: Adobe Illustrator 17.0.0, SVG Export Plug-In . SVG Version: 6.00 Build 0)  -->
<!DOCTYPE svg PUBLIC "-//W3C//DTD SVG 1.1//EN" "http://www.w3.org/Graphics/SVG/1.1/DTD/svg11.dtd">
<svg version="1.1" id="Layer_1" xmlns="http://www.w3.org/2000/svg" xmlns:xlink="http://www.w3.org/1999/xlink" x="0px" y="0px"
	 width="18px" height="18px" viewBox="0 0 18 18" enable-background="new 0 0 18 18" xml:space="preserve">
<path fill="#9B9B9B" d="M6.75,8.25h-1.5v1.5h1.5V8.25z M9.75,8.25h-1.5v1.5h1.5V8.25z M12.75,8.25h-1.5v1.5h1.5V8.25z M14.25,3H13.5
	V1.5H12V3H6V1.5H4.5V3H3.75C2.918,3,2.257,3.675,2.257,4.5L2.25,15c0,0.825,0.668,1.5,1.5,1.5h10.5c0.825,0,1.5-0.675,1.5-1.5V4.5
	C15.75,3.675,15.075,3,14.25,3z M14.25,15H3.75V6.75h10.5V15z"/>
</svg>
