<?xml version="1.0" encoding="utf-8"?>
<!-- Generator: Adobe Illustrator 17.0.0, SVG Export Plug-In . SVG Version: 6.00 Build 0)  -->
<!DOCTYPE svg PUBLIC "-//W3C//DTD SVG 1.1//EN" "http://www.w3.org/Graphics/SVG/1.1/DTD/svg11.dtd">
<svg version="1.1" id="Layer_1" xmlns="http://www.w3.org/2000/svg" xmlns:xlink="http://www.w3.org/1999/xlink" x="0px" y="0px"
	 width="100px" height="30px" viewBox="0 0 100 30" enable-background="new 0 0 100 30" xml:space="preserve">
<g>
	<g>
		<path fill="#F36523" d="M21.054,15.107c0,6.111-3.189,9.541-8.174,9.541C7.6,24.648,5,20.28,5,15.402
			c0-5.039,2.975-9.354,8.147-9.354C18.695,6.049,21.054,10.685,21.054,15.107z M9.878,15.375c0,3.645,1.26,5.521,3.189,5.521
			c2.01,0,3.109-2.224,3.109-5.628c0-3.109-1.099-5.467-3.136-5.467C11.137,9.8,9.878,11.837,9.878,15.375z"/>
		<path fill="#F36523" d="M23.386,15.563c0-1.876-0.027-3.19-0.107-4.369h3.967l0.188,2.224h0.107
			c0.67-1.822,2.171-2.492,3.216-2.492c0.429,0,0.616,0.027,0.938,0.081v4.395c-0.322-0.054-0.67-0.108-1.126-0.108
			c-1.152,0-2.117,0.482-2.439,1.608c-0.08,0.241-0.107,0.59-0.107,0.992v6.486h-4.637C23.386,24.38,23.386,15.563,23.386,15.563z"
			/>
		<path fill="#F36523" d="M38.046,7.603c0,1.286-0.938,2.251-2.359,2.251c-1.367,0-2.305-0.965-2.305-2.251
			c0-1.313,0.965-2.251,2.332-2.251C37.108,5.352,38.019,6.29,38.046,7.603z M33.409,24.38V11.195h4.637V24.38H33.409z"/>
	</g>
	<g>
		<path fill="#333333" d="M52.225,23.818c-0.804,0.429-2.305,0.804-4.181,0.804c-3.886,0-7.638-2.626-7.638-9.139
			c0-5.95,3.431-9.407,8.148-9.407c1.93,0,3.082,0.402,3.565,0.67l-0.402,1.072c-0.777-0.375-1.822-0.67-3.189-0.67
			c-3.993,0-6.834,2.814-6.834,8.281c0,5.333,2.653,8.094,6.7,8.094c1.367,0,2.627-0.268,3.457-0.723L52.225,23.818z"/>
		<path fill="#333333" d="M64.473,17.868c0,4.77-2.868,6.78-5.467,6.78c-2.895,0-5.253-2.385-5.253-6.62
			c0-4.502,2.6-6.781,5.441-6.781C62.221,11.248,64.473,13.687,64.473,17.868z M55.012,17.975c0,2.868,1.554,5.628,4.074,5.628
			s4.128-2.76,4.128-5.708c0-2.251-1.046-5.601-4.101-5.601C56.164,12.293,55.012,15.402,55.012,17.975z"/>
		<path fill="#333333" d="M81.438,15.777c-0.161-2.733-0.349-5.923-0.295-7.933h-0.108c-0.59,1.983-1.233,4.101-2.171,6.754
			l-3.457,9.782H74.63l-3.243-9.487c-0.964-2.814-1.661-5.012-2.144-7.049h-0.08c-0.027,2.144-0.161,5.173-0.349,8.174l-0.482,8.362
			H67.1l1.206-18.064h1.421l3.484,10.077c0.777,2.359,1.367,4.101,1.849,5.95h0.08c0.429-1.795,0.992-3.484,1.849-5.923
			l3.538-10.104h1.501L83.18,24.38h-1.233L81.438,15.777z"/>
		<path fill="#333333" d="M86.236,22.504c0.885,0.59,2.171,1.045,3.484,1.045c2.492,0,4.047-1.501,4.047-3.725
			c0-1.983-1.045-3.189-3.297-4.235c-2.251-0.938-4.261-2.439-4.261-4.985c0-2.653,2.09-4.529,4.931-4.529
			c1.528,0,2.68,0.429,3.216,0.804l-0.482,1.046c-0.456-0.322-1.501-0.777-2.841-0.777c-2.627,0-3.591,1.795-3.591,3.216
			c0,2.064,1.152,3.002,3.457,4.101C93.579,15.777,95,17.198,95,19.717c0,2.707-1.929,4.904-5.36,4.904
			c-1.421,0-3.056-0.482-3.86-1.099L86.236,22.504z"/>
	</g>
</g>
</svg>
