<?xml version="1.0" encoding="utf-8"?>
<!-- Generator: Adobe Illustrator 17.0.0, SVG Export Plug-In . SVG Version: 6.00 Build 0)  -->
<!DOCTYPE svg PUBLIC "-//W3C//DTD SVG 1.1//EN" "http://www.w3.org/Graphics/SVG/1.1/DTD/svg11.dtd">
<svg version="1.1" id="Layer_1" xmlns="http://www.w3.org/2000/svg" xmlns:xlink="http://www.w3.org/1999/xlink" x="0px" y="0px"
	 width="20px" height="20px" viewBox="0 0 20 20" enable-background="new 0 0 20 20" xml:space="preserve">
<path fill="#FFFFFF" d="M17.5,0h-15C1.121,0,0,1.121,0,2.5v11.25c0,1.379,1.121,2.5,2.5,2.5h3.75v3.281
	C6.25,19.809,6.477,20,6.719,20c0.094,0,0.191-0.027,0.277-0.094l4.879-3.656H17.5c1.379,0,2.5-1.121,2.5-2.5V2.5
	C20,1.121,18.879,0,17.5,0z M18.125,13.75c0,0.344-0.281,0.625-0.625,0.625h-6.25l-0.5,0.375l-2.625,1.969v-2.344H2.5
	c-0.344,0-0.625-0.281-0.625-0.625V2.5c0-0.344,0.281-0.625,0.625-0.625h15c0.344,0,0.625,0.281,0.625,0.625V13.75z"/>
</svg>
