<?xml version="1.0" encoding="utf-8"?>
<!-- Generator: Adobe Illustrator 17.0.0, SVG Export Plug-In . SVG Version: 6.00 Build 0)  -->
<!DOCTYPE svg PUBLIC "-//W3C//DTD SVG 1.1//EN" "http://www.w3.org/Graphics/SVG/1.1/DTD/svg11.dtd">
<svg version="1.1" id="Layer_1" xmlns="http://www.w3.org/2000/svg" xmlns:xlink="http://www.w3.org/1999/xlink" x="0px" y="0px"
	 width="600px" height="244.488px" viewBox="0 0 600 244.488" enable-background="new 0 0 600 244.488" xml:space="preserve">
<g>
	<g id="Shape_9">
		<g>
			<path fill="#F36523" stroke="#F36523" stroke-width="9.3122" stroke-miterlimit="10" d="M103.465,51.613
				c-38.141,0-69.172,30.847-69.172,68.76c0,19.258,8.156,37.645,22.423,50.661v18.958c0,1.026,0.548,1.975,1.441,2.491
				c0.45,0.262,0.954,0.392,1.459,0.392c0.493,0,0.986-0.127,1.43-0.375l15.556-8.764c8.528,3.584,17.56,5.397,26.863,5.397
				c38.144,0,69.172-30.847,69.172-68.763C172.637,82.46,141.609,51.613,103.465,51.613z M103.465,183.37
				c-8.977,0-17.675-1.845-25.851-5.48c-0.839-0.372-1.813-0.329-2.615,0.124l-12.486,7.034v-15.294c0-0.827-0.357-1.615-0.98-2.159
				c-13.627-11.967-21.446-29.178-21.446-47.219c0.006-34.739,28.434-62.997,63.378-62.997s63.372,28.258,63.372,62.994
				C166.837,155.109,138.409,183.37,103.465,183.37z M78.387,126.859c-2.531,0-4.592-2.047-4.592-4.564s2.061-4.564,4.592-4.564
				s4.592,2.047,4.592,4.564S80.921,126.859,78.387,126.859z M104.486,126.859c-2.531,0-4.592-2.047-4.592-4.564
				s2.061-4.564,4.592-4.564s4.592,2.047,4.592,4.564S107.02,126.859,104.486,126.859z M130.585,126.859
				c-2.531,0-4.59-2.047-4.59-4.564s2.058-4.564,4.59-4.564c2.531,0,4.592,2.047,4.592,4.564S133.116,126.859,130.585,126.859z"/>
		</g>
	</g>
	<g>
		<path fill="#3A3A3A" d="M184.226,108.321h18.462v18.007c2.52-6.052,6.102-10.895,10.743-14.528
			c4.639-3.631,10.491-5.296,17.554-4.994v19.369h-1.059c-4.035,0-7.717,0.659-11.046,1.969c-3.33,1.312-6.204,3.278-8.626,5.902
			s-4.289,5.927-5.6,9.91c-1.312,3.988-1.967,8.603-1.967,13.846v30.417h-18.462V108.321z"/>
		<path fill="#3A3A3A" d="M235.675,78.661h19.824v17.402h-19.824V78.661z M236.432,108.321h18.462v79.898h-18.462V108.321z"/>
		<path fill="#3A3A3A" d="M319.509,190.035c-7.566,0-14.58-1.414-21.035-4.238c-6.458-2.824-12.03-6.682-16.721-11.577
			c-4.691-4.893-8.348-10.667-10.971-17.326c-2.625-6.659-3.934-13.77-3.934-21.337v-0.302c0-7.464,1.336-14.528,4.009-21.184
			c2.672-6.659,6.355-12.485,11.047-17.479c4.691-4.994,10.264-8.928,16.721-11.804c6.454-2.875,13.518-4.312,21.187-4.312
			c4.74,0,9.026,0.404,12.861,1.211c3.833,0.808,7.389,1.967,10.669,3.48c3.276,1.513,6.354,3.306,9.23,5.372
			c2.876,2.069,5.675,4.365,8.398,6.885l-5.6,5.751c-2.321-2.218-4.742-4.287-7.262-6.204c-2.524-1.915-5.222-3.557-8.098-4.919
			c-2.874-1.362-6.002-2.444-9.38-3.253c-3.383-0.806-7.036-1.211-10.972-1.211c-6.354,0-12.256,1.211-17.705,3.632
			c-5.448,2.421-10.165,5.777-14.149,10.064c-3.987,4.289-7.113,9.304-9.383,15.056c-2.269,5.75-3.405,11.954-3.405,18.613v0.302
			c0,6.659,1.158,12.888,3.481,18.688c2.319,5.802,5.471,10.847,9.458,15.132c3.984,4.29,8.701,7.668,14.149,10.14
			c5.447,2.474,11.349,3.706,17.706,3.706c7.664,0,14.323-1.41,19.975-4.236c5.647-2.824,11.145-6.909,16.494-12.259l5.295,5.145
			c-2.824,2.724-5.725,5.222-8.701,7.491c-2.976,2.271-6.154,4.213-9.533,5.827c-3.381,1.614-7.036,2.874-10.972,3.783
			C328.437,189.581,324.147,190.035,319.509,190.035z"/>
		<path fill="#3A3A3A" d="M370.199,77.753h7.416v47.668c2.621-4.54,6.152-8.373,10.592-11.502
			c4.438-3.126,10.187-4.691,17.251-4.691c4.84,0,9.178,0.783,13.013,2.345c3.833,1.566,7.086,3.76,9.76,6.584
			c2.671,2.826,4.69,6.179,6.052,10.062c1.362,3.885,2.044,8.148,2.044,12.786v47.213h-7.416v-45.852
			c0-7.966-2.117-14.348-6.354-19.143c-4.238-4.79-10.29-7.186-18.158-7.186c-3.835,0-7.366,0.68-10.594,2.042
			s-6.052,3.253-8.473,5.675s-4.313,5.322-5.675,8.703c-1.362,3.381-2.042,7.089-2.042,11.122v44.64h-7.416V77.753z"/>
		<path fill="#3A3A3A" d="M475.066,190.035c-3.633,0-7.214-0.507-10.745-1.514c-3.533-1.007-6.709-2.521-9.533-4.54
			c-2.826-2.017-5.122-4.538-6.886-7.566c-1.767-3.026-2.646-6.557-2.646-10.592v-0.302c0-4.033,0.832-7.616,2.496-10.744
			c1.664-3.126,3.958-5.75,6.884-7.869c2.926-2.119,6.454-3.731,10.592-4.843c4.135-1.109,8.726-1.664,13.77-1.664
			c5.45,0,10.14,0.302,14.075,0.907c3.933,0.607,7.766,1.414,11.499,2.421v-3.31c0-7.823-2.246-13.691-6.734-17.604
			c-4.49-3.913-10.719-5.87-18.688-5.87c-4.742,0-9.08,0.582-13.013,1.741c-3.935,1.159-7.668,2.646-11.199,4.463l-2.724-6.514
			c4.238-2.062,8.526-3.71,12.863-4.947c4.336-1.237,9.178-1.855,14.528-1.855c10.592,0,18.711,2.826,24.363,8.473
			c5.245,5.247,7.869,12.511,7.869,21.791v48.121h-7.264v-12.863c-1.312,1.817-2.901,3.608-4.767,5.372
			c-1.867,1.766-4.008,3.331-6.429,4.692s-5.172,2.471-8.248,3.328C482.05,189.603,478.696,190.035,475.066,190.035z
			 M475.52,182.922c3.933,0,7.664-0.575,11.197-1.732c3.531-1.153,6.632-2.762,9.305-4.82c2.674-2.06,4.79-4.547,6.357-7.462
			c1.562-2.912,2.346-6.125,2.346-9.644v-8.739c-3.231-0.803-7.014-1.58-11.349-2.335c-4.34-0.753-9.283-1.13-14.83-1.13
			c-8.171,0-14.453,1.632-18.84,4.899c-4.388,3.265-6.582,7.607-6.582,13.032v0.3c0,2.815,0.605,5.302,1.814,7.459
			c1.212,2.162,2.851,3.995,4.92,5.5c2.067,1.51,4.463,2.662,7.186,3.467C469.768,182.522,472.592,182.922,475.52,182.922z"/>
		<path fill="#3A3A3A" d="M552.844,189.581c-3.026,0-5.852-0.405-8.473-1.209c-2.624-0.807-4.918-2.094-6.886-3.86
			c-1.967-1.764-3.506-3.983-4.615-6.657c-1.109-2.674-1.664-5.827-1.664-9.458v-50.542h-11.197v-6.811h11.197V86.378h7.416v24.665
			h27.086v6.811h-27.086v49.669c0,5.538,1.437,9.412,4.313,11.627c2.874,2.212,6.582,3.319,11.122,3.319
			c1.914,0,3.731-0.189,5.447-0.573c1.714-0.38,3.681-1.048,5.902-2.001v6.961c-2.019,0.907-4.01,1.589-5.977,2.044
			C557.459,189.353,555.265,189.581,552.844,189.581z"/>
	</g>
</g>
</svg>
