<?xml version="1.0" encoding="utf-8"?>
<!-- Generator: Adobe Illustrator 17.0.0, SVG Export Plug-In . SVG Version: 6.00 Build 0)  -->
<!DOCTYPE svg PUBLIC "-//W3C//DTD SVG 1.1//EN" "http://www.w3.org/Graphics/SVG/1.1/DTD/svg11.dtd">
<svg version="1.1" id="Layer_1" xmlns="http://www.w3.org/2000/svg" xmlns:xlink="http://www.w3.org/1999/xlink" x="0px" y="0px"
	 width="20px" height="20px" viewBox="0 0 20 20" enable-background="new 0 0 20 20" xml:space="preserve">
<path fill="#FFFFFF" d="M17.944,5.926c0.013,0.178,0.013,0.355,0.013,0.533c0,5.419-4.124,11.662-11.662,11.662
	c-2.322,0-4.48-0.673-6.294-1.84c0.33,0.038,0.647,0.051,0.99,0.051c1.916,0,3.68-0.647,5.089-1.751
	c-1.802-0.038-3.312-1.218-3.832-2.843c0.254,0.038,0.508,0.063,0.774,0.063c0.368,0,0.736-0.051,1.079-0.14
	c-1.878-0.381-3.287-2.03-3.287-4.023V7.589c0.546,0.305,1.18,0.495,1.853,0.52C1.561,7.373,0.838,6.117,0.838,4.695
	c0-0.761,0.203-1.459,0.558-2.069c2.018,2.487,5.051,4.112,8.452,4.289C9.784,6.612,9.746,6.294,9.746,5.977
	c0-2.259,1.827-4.099,4.099-4.099c1.18,0,2.246,0.495,2.995,1.294c0.926-0.178,1.815-0.52,2.602-0.99
	c-0.305,0.952-0.952,1.751-1.802,2.259c0.825-0.089,1.624-0.317,2.36-0.634C19.442,4.619,18.744,5.343,17.944,5.926z"/>
</svg>
